<?xml version="1.0" standalone="no"?>
<!DOCTYPE svg PUBLIC "-//W3C//DTD SVG 20010904//EN"
 "http://www.w3.org/TR/2001/REC-SVG-20010904/DTD/svg10.dtd">
<svg version="1.0" xmlns="http://www.w3.org/2000/svg"
 width="826.000000pt" height="1169.000000pt" viewBox="0 0 826.000000 1169.000000"
 preserveAspectRatio="xMidYMid meet">

<g transform="translate(0.000000,1169.000000) scale(0.100000,-0.100000)"
fill="#000000" stroke="none">
<path d="M0 11119 l0 -72 52 53 c28 29 70 60 92 70 l41 19 -92 0 -93 1 0 -71z"/>
<path d="M3500 10744 c-41 -7 -87 -17 -102 -22 -31 -13 -46 -32 -24 -32 27 0
18 -29 -14 -45 -16 -9 -30 -20 -30 -26 0 -15 -88 -4 -108 13 -9 9 -23 13 -31
10 -7 -2 -16 0 -20 6 -4 6 -39 15 -79 20 -68 8 -73 7 -87 -14 -10 -15 -21 -21
-35 -17 -14 4 -36 -5 -63 -25 -23 -16 -59 -34 -79 -40 -21 -6 -50 -19 -65 -30
-15 -10 -49 -22 -74 -25 -46 -6 -193 -69 -204 -88 -4 -5 -22 -9 -41 -9 -27 0
-41 -7 -60 -29 -14 -17 -33 -32 -42 -35 -9 -3 -24 -19 -34 -35 -9 -16 -28 -37
-42 -46 -22 -14 -29 -15 -42 -4 -9 7 -13 21 -10 34 9 34 101 188 135 223 17
18 31 37 31 42 0 6 6 10 13 10 8 0 25 16 40 36 14 20 38 45 54 56 l28 20 -30
-7 c-16 -3 -31 -11 -33 -16 -2 -5 -10 -9 -18 -9 -18 0 -101 -86 -110 -114 -4
-11 -25 -41 -47 -66 -39 -44 -87 -135 -87 -166 0 -8 -13 -43 -29 -77 -15 -35
-40 -104 -55 -153 -15 -49 -31 -100 -37 -114 -5 -14 -11 -46 -13 -71 -3 -26
-9 -64 -15 -85 -40 -150 -51 -207 -46 -224 8 -24 -11 -60 -30 -60 -9 0 -15
-10 -16 -22 -2 -73 -8 -90 -53 -138 -25 -27 -46 -53 -46 -57 0 -5 -12 -16 -27
-25 -59 -36 -221 -211 -252 -272 -9 -17 -61 -76 -115 -131 -106 -108 -206
-226 -206 -243 0 -6 -6 -15 -12 -19 -42 -27 -168 -310 -168 -377 0 -12 -9 -62
-20 -112 -11 -52 -20 -127 -20 -182 0 -82 3 -99 27 -145 l28 -52 1 -230 c0
-203 3 -234 19 -265 10 -19 22 -51 26 -70 4 -19 17 -66 29 -105 12 -38 26 -92
32 -120 6 -27 21 -86 34 -131 13 -44 24 -93 24 -110 0 -16 8 -66 17 -112 l17
-83 -36 -72 c-56 -110 -75 -290 -43 -407 8 -30 24 -95 36 -145 12 -49 25 -95
30 -101 5 -6 13 -31 18 -55 5 -24 16 -75 25 -114 9 -41 17 -143 19 -245 4
-179 10 -211 57 -315 45 -100 41 -94 35 -61 -6 27 -5 28 11 15 14 -11 18 -11
22 -1 3 10 7 10 18 1 10 -8 14 -37 14 -108 0 -74 4 -105 18 -133 32 -61 94
-128 138 -148 66 -31 105 -85 127 -177 11 -43 20 -91 21 -108 0 -16 4 -34 8
-40 3 -5 9 -37 13 -70 4 -33 12 -71 18 -85 10 -25 26 -112 32 -180 4 -31 19
-109 44 -212 5 -20 6 -39 3 -42 -3 -4 0 -6 6 -6 6 0 16 -26 22 -58 7 -31 20
-73 30 -92 9 -19 23 -60 30 -90 7 -30 21 -65 31 -78 10 -13 21 -37 24 -55 4
-18 22 -63 41 -101 19 -38 34 -83 34 -100 0 -17 4 -38 9 -45 6 -9 6 -22 0 -34
-7 -12 -7 -23 1 -32 12 -15 16 -493 4 -620 -3 -38 -5 -89 -5 -113 1 -23 -3
-42 -9 -42 -6 0 -10 -29 -9 -77 1 -97 -8 -168 -28 -212 -8 -18 -16 -39 -17
-46 -1 -6 -9 -24 -19 -38 -9 -15 -17 -32 -17 -39 -1 -16 -35 -58 -47 -58 -5 0
-16 -9 -26 -20 -9 -11 -21 -20 -26 -20 -24 0 -18 23 19 76 22 32 40 61 40 65
0 31 -144 11 -305 -42 -104 -35 -335 -136 -350 -155 -6 -6 -28 -19 -50 -28
-22 -10 -49 -25 -60 -36 -19 -17 -60 -42 -130 -80 -31 -16 -35 -19 -144 -110
-36 -30 -88 -71 -114 -90 -27 -19 -56 -43 -65 -53 -9 -9 -24 -17 -32 -17 -9 0
-20 -4 -25 -9 -6 -5 -39 -21 -75 -36 -36 -15 -84 -36 -107 -46 -23 -10 -47
-19 -53 -19 -6 0 -30 -9 -53 -21 -23 -11 -62 -27 -87 -36 -25 -8 -52 -21 -61
-29 -8 -8 -21 -14 -27 -14 -7 0 -49 -17 -95 -39 -130 -61 -137 -63 -153 -50
-12 10 -14 -17 -14 -175 0 -160 2 -186 15 -186 9 0 18 -13 22 -31 5 -26 9 -30
29 -25 14 4 24 2 24 -4 0 -5 6 -10 13 -10 7 0 25 -12 41 -27 16 -14 47 -30 70
-34 58 -11 1448 -11 1466 0 12 8 11 17 -8 58 -25 54 -24 149 1 168 7 5 12 15
10 21 -2 6 9 17 23 25 21 11 28 11 31 2 7 -19 23 -16 23 5 -1 21 -23 52 -39
52 -6 0 -11 5 -11 11 0 7 9 9 23 5 12 -3 27 -6 34 -6 6 0 13 -12 15 -27 2 -17
10 -29 21 -31 13 -3 17 3 17 27 0 21 5 31 15 31 8 0 15 -9 15 -20 0 -11 5 -20
10 -20 6 0 10 -9 10 -21 0 -16 -4 -19 -21 -14 -17 6 -20 3 -17 -12 2 -11 11
-17 22 -15 14 3 16 -1 11 -17 -10 -31 27 -61 75 -61 27 0 40 4 40 14 0 7 6 19
14 25 11 9 15 8 20 -5 4 -11 14 -14 34 -9 35 7 80 -9 89 -32 9 -26 55 -73 65
-67 15 10 8 24 -12 24 -11 0 -20 7 -20 15 0 8 6 15 13 15 8 0 18 17 24 38 10
39 15 35 29 -33 7 -30 14 -40 29 -40 36 -1 95 -17 95 -26 0 -5 9 -9 19 -9 11
0 22 -6 25 -12 5 -10 7 -10 12 0 3 6 14 12 24 12 19 0 34 46 19 56 -18 10 -8
25 14 22 16 -2 23 3 25 20 5 30 22 28 22 -3 0 -20 5 -25 24 -25 14 0 28 -4 31
-10 8 -12 72 -13 79 -1 3 4 17 6 31 3 18 -3 25 0 25 11 0 10 6 13 20 10 11 -3
20 -10 20 -15 0 -6 7 -8 15 -4 8 3 15 1 15 -4 0 -6 10 -10 23 -10 15 0 29 -9
37 -24 11 -21 15 -23 34 -13 25 14 36 27 36 45 0 18 -18 15 -24 -5 -3 -10 -3
1 0 25 4 27 2 42 -5 42 -6 0 -11 19 -11 45 0 33 4 45 15 45 8 0 15 -4 15 -10
0 -5 14 -10 30 -10 17 0 30 -4 30 -10 0 -5 5 -10 10 -10 23 0 8 36 -20 48 -25
12 -30 19 -30 49 0 26 -5 36 -20 40 -23 6 -25 15 -7 44 9 17 10 23 0 26 -7 3
-13 12 -13 22 0 9 -6 23 -12 29 -10 10 -10 17 0 32 17 28 15 40 -8 40 -13 0
-20 7 -20 20 0 25 -27 27 -33 3 -4 -17 -5 -17 -6 0 0 9 -5 17 -11 17 -5 0 -10
9 -10 20 0 11 -6 20 -14 20 -23 0 -30 20 -12 33 8 7 17 28 18 47 3 34 2 35
-29 32 -27 -3 -33 0 -33 17 0 11 -8 22 -17 24 -17 4 -17 5 0 6 24 1 22 21 -3
21 -15 0 -20 7 -20 25 0 18 5 25 20 25 14 0 20 -7 20 -21 0 -36 34 -18 44 24
8 29 14 37 33 37 16 0 23 6 23 20 0 11 5 20 11 20 6 0 9 12 7 27 -3 23 2 28
32 36 19 5 38 13 41 19 4 7 14 6 28 -2 34 -18 51 3 51 60 l0 48 43 3 c63 6 87
0 87 -20 0 -10 12 -24 28 -31 15 -8 39 -22 54 -32 14 -10 33 -18 42 -18 9 0
16 -6 16 -14 0 -18 77 -33 93 -17 15 15 27 14 27 -4 0 -8 8 -15 18 -15 20 0
47 54 36 72 -6 9 -10 5 -15 -12 -6 -21 -7 -19 -8 13 l-1 37 60 0 c53 0 60 -2
60 -20 0 -13 7 -20 20 -20 13 0 20 -7 20 -20 0 -13 7 -20 20 -20 14 0 20 -7
20 -21 0 -19 4 -20 40 -14 26 4 40 3 40 -4 0 -6 7 -11 15 -11 21 0 19 -18 -2
-23 -10 -3 -3 -5 15 -6 25 -1 35 4 40 20 7 18 10 19 21 5 11 -13 15 -13 27 -1
8 7 14 22 14 32 0 11 13 29 28 40 27 20 29 20 50 3 22 -18 30 -50 13 -50 -5 0
-11 -10 -13 -23 -2 -16 -9 -21 -23 -19 -12 2 -16 0 -9 -5 6 -4 14 -15 17 -23
4 -12 6 -11 6 3 2 30 19 18 30 -20 10 -35 10 -33 6 24 -4 51 -2 63 10 63 18 0
20 26 3 34 -9 3 -3 14 17 30 36 31 49 33 40 7 -10 -33 5 -69 32 -76 19 -4 24
-11 20 -25 -4 -17 0 -20 24 -20 16 0 29 4 29 8 0 5 14 7 30 4 25 -3 29 -1 24
12 -4 12 0 16 15 16 12 0 21 -5 21 -11 0 -5 5 -7 10 -4 6 3 10 18 10 32 0 20
4 24 20 20 11 -3 26 0 33 7 6 7 20 15 30 19 9 3 17 13 17 22 0 8 7 15 15 15
10 0 15 -10 15 -30 0 -16 4 -30 9 -30 5 0 12 -10 15 -23 6 -20 7 -20 17 -4 5
9 16 17 23 17 8 0 12 11 11 28 -1 15 0 19 2 9 7 -28 77 -20 81 10 3 19 9 22
46 20 l43 -2 -3 -45 c-2 -25 -1 -37 2 -28 7 22 34 24 34 3 0 -8 -4 -15 -9 -15
-5 0 -11 -13 -14 -29 -3 -16 -9 -40 -13 -55 -4 -19 -2 -26 9 -26 8 0 17 10 20
21 5 19 11 21 39 15 18 -3 35 -11 36 -16 5 -13 52 -13 52 0 0 6 -7 10 -15 10
-18 0 -20 21 -3 38 18 18 45 14 51 -8 5 -20 37 -29 37 -10 0 6 11 10 25 10 14
0 25 -5 25 -10 0 -7 6 -7 18 -1 9 5 25 12 35 15 9 3 17 15 17 26 0 37 28 22
35 -20 6 -36 10 -40 37 -40 40 0 61 22 49 52 -7 17 -10 19 -10 6 -1 -10 -8
-18 -17 -18 -12 0 -14 7 -9 32 4 18 11 37 15 42 11 11 70 10 104 -3 30 -12 66
-6 66 11 0 5 6 8 13 5 6 -2 17 5 24 17 l12 21 1 -22 c0 -18 6 -23 26 -23 21 0
25 4 22 23 -2 15 -9 21 -20 19 -10 -2 -18 3 -18 11 0 20 27 40 44 34 28 -11
38 18 16 46 -20 25 -27 57 -12 57 18 -1 54 -41 48 -55 -3 -9 1 -18 9 -21 8 -4
15 -15 15 -25 0 -14 7 -19 25 -19 24 0 25 -3 25 -55 0 -48 3 -55 19 -55 11 0
27 -10 36 -22 l15 -23 6 22 c4 13 13 23 20 23 8 0 14 7 14 15 0 8 5 15 10 15
14 0 13 -27 -2 -32 -21 -7 3 -29 30 -28 41 3 45 1 29 -14 -7 -8 -25 -16 -38
-18 -17 -2 -25 -10 -27 -28 -3 -20 -2 -22 11 -12 12 10 16 10 21 -3 7 -18 29
-19 55 -3 25 16 47 -6 57 -58 l8 -39 7 30 c5 23 7 25 8 8 0 -12 6 -25 11 -28
16 -10 12 -55 -5 -55 -23 0 -21 -87 3 -93 9 -3 -9 -5 -40 -6 -51 -1 -58 -3
-58 -21 0 -13 7 -20 20 -20 13 0 20 -7 20 -20 0 -15 -7 -20 -25 -20 -19 0 -25
-5 -25 -22 0 -13 -7 -32 -15 -42 -8 -11 -15 -28 -15 -38 0 -11 -6 -18 -12 -17
-31 4 -40 -2 -35 -22 5 -18 2 -19 -22 -14 -26 5 -28 3 -39 -44 -13 -55 -5
-103 9 -63 8 22 33 30 43 13 3 -4 2 -21 -3 -37 l-8 -29 53 3 c45 3 54 7 54 23
0 10 4 19 9 19 5 0 9 -25 10 -55 0 -32 -4 -55 -10 -55 -21 0 -4 -45 19 -48 13
-2 22 -10 22 -20 0 -20 -20 -54 -20 -34 0 6 -4 12 -10 12 -5 0 -10 -6 -10 -14
0 -10 11 -14 35 -13 21 1 35 6 35 14 0 9 6 8 20 -4 11 -10 20 -23 20 -31 0 -7
9 -23 21 -35 l20 -22 1117 -3 c765 -2 1128 0 1152 8 49 14 93 58 145 144 l45
73 1 142 1 143 -32 33 c-18 19 -53 41 -78 50 -25 8 -52 21 -61 28 -9 8 -61 24
-116 37 -55 12 -158 42 -230 65 -71 24 -166 51 -210 61 -44 9 -89 23 -100 29
-11 7 -54 25 -95 40 -41 16 -93 38 -115 50 -22 13 -56 26 -75 29 -19 4 -44 11
-55 16 -40 16 -156 50 -174 50 -10 0 -26 9 -36 20 -10 11 -22 20 -26 20 -5 0
-46 29 -91 65 -46 36 -99 78 -118 93 -19 16 -73 54 -120 87 -47 32 -106 76
-132 97 -62 51 -174 106 -231 114 l-46 7 -12 -47 c-6 -25 -15 -49 -20 -52 -17
-10 -9 -34 14 -40 14 -3 31 -20 40 -40 9 -19 21 -34 27 -34 5 0 10 -7 10 -15
0 -8 5 -15 10 -15 6 0 10 -4 10 -9 0 -5 5 -22 12 -38 6 -15 12 -31 12 -35 1
-3 4 -10 9 -14 18 -18 6 -45 -23 -51 -16 -3 -30 -11 -30 -18 0 -7 -7 -15 -15
-19 -14 -5 -20 22 -18 82 1 7 -11 12 -28 12 -30 0 -36 9 -18 27 8 8 8 13 0 17
-6 4 -11 21 -11 38 0 22 -4 29 -14 25 -18 -7 -28 3 -17 17 5 6 7 23 4 38 -5
25 -10 28 -44 28 -40 0 -48 11 -29 40 6 10 10 11 10 3 0 -7 5 -13 10 -13 6 0
10 7 10 15 0 9 7 18 15 21 16 7 22 79 6 88 -4 3 -7 -7 -5 -22 2 -16 -1 -11 -7
12 -9 30 -9 40 1 46 19 11 4 40 -20 40 -22 0 -28 26 -7 32 9 4 12 48 13 172 0
126 4 170 14 176 8 5 10 17 6 33 -3 14 -1 29 4 32 8 5 7 11 -1 21 -9 11 -9 18
-1 26 15 15 16 48 2 48 -5 0 -10 9 -10 20 0 11 5 20 10 20 6 0 10 7 10 16 0
10 -5 14 -15 10 -12 -4 -14 0 -8 22 4 15 7 35 7 45 0 9 4 17 8 17 4 0 8 19 8
43 0 23 6 51 13 63 35 61 65 122 71 147 4 16 18 40 31 53 13 13 27 41 31 61 4
21 20 50 36 66 15 16 28 38 28 49 0 40 23 96 41 101 12 3 20 18 24 43 3 22 12
68 20 104 8 36 15 78 15 93 0 15 7 30 14 33 11 4 15 25 15 81 0 41 4 80 10 86
11 14 3 67 -10 67 -5 0 -9 9 -9 20 0 13 -7 20 -20 20 -11 0 -20 -4 -20 -10 0
-5 -9 -10 -20 -10 -17 0 -20 7 -20 45 0 38 -3 45 -20 45 -16 0 -20 -7 -20 -38
0 -29 -5 -40 -22 -47 -22 -10 -28 -19 -50 -73 -7 -17 -16 -32 -20 -32 -4 0 -8
-12 -10 -27 l-4 -28 -12 28 c-6 15 -13 27 -16 27 -2 0 -18 -13 -36 -30 -18
-16 -38 -30 -46 -30 -8 0 -14 -4 -14 -10 0 -5 -12 -10 -26 -10 -14 0 -37 -9
-51 -20 -14 -11 -36 -20 -49 -20 -16 0 -24 -7 -26 -22 -2 -16 -9 -22 -20 -20
-22 4 -24 -24 -3 -32 12 -4 14 -14 9 -42 -6 -34 -6 -35 14 -23 19 12 23 11 36
-6 22 -29 19 -45 -8 -45 -29 0 -39 -21 -37 -77 2 -32 -1 -43 -12 -43 -8 0 -18
-10 -22 -22 -7 -20 -9 -17 -12 16 -3 23 0 42 7 46 7 5 9 20 5 44 -6 32 -11 36
-36 36 -16 0 -39 -6 -50 -12 -17 -10 -23 -10 -26 0 -9 24 -23 11 -23 -22 0
-35 -15 -57 -22 -34 -3 9 -6 9 -12 0 -4 -7 -2 -12 3 -12 6 0 11 -9 11 -20 0
-13 7 -20 20 -20 11 0 20 -7 20 -15 0 -8 -8 -15 -19 -15 -10 0 -24 7 -31 15
-7 8 -19 15 -26 15 -8 0 -14 6 -14 14 0 7 -7 27 -15 42 -14 27 -15 27 -15 7 0
-13 -4 -23 -10 -23 -5 0 -10 10 -11 23 -1 21 -1 21 -9 -3 -14 -44 -11 -58 13
-63 l22 -4 -22 -2 c-13 0 -23 -5 -23 -10 0 -5 -12 -12 -27 -15 -58 -14 -82
-30 -79 -51 2 -11 1 -14 -1 -7 -3 6 -13 12 -23 12 -10 0 -20 5 -22 12 -7 20
-58 -38 -58 -66 0 -19 -4 -23 -19 -19 -13 3 -24 -2 -33 -16 -7 -12 -18 -21
-25 -21 -19 0 -16 -37 5 -58 20 -20 18 -48 -4 -56 -9 -4 -14 1 -14 14 0 11 -4
20 -9 20 -13 0 -20 -23 -14 -53 6 -31 -11 -57 -38 -57 -11 0 -19 -4 -19 -10 0
-5 -9 -10 -19 -10 -23 0 -37 -16 -19 -23 9 -3 5 -12 -11 -31 -14 -14 -26 -24
-29 -21 -2 2 -19 -7 -37 -20 -17 -14 -40 -25 -49 -25 -10 0 -31 -9 -47 -21
-24 -17 -33 -18 -44 -9 -22 18 -19 50 4 50 36 0 52 57 17 62 -63 8 -66 6 -66
-44 0 -57 -17 -98 -40 -98 -10 0 -20 -9 -23 -20 -3 -12 -14 -20 -26 -20 -16 0
-21 -6 -21 -25 0 -15 -9 -31 -24 -41 -14 -8 -26 -25 -28 -37 -3 -25 -41 -35
-62 -18 -10 8 -22 8 -41 1 -22 -8 -26 -8 -22 3 3 8 1 20 -4 28 -8 12 -11 12
-22 -1 -6 -9 -28 -20 -48 -26 l-36 -11 3 46 c2 25 1 38 -2 28 -6 -20 -24 -23
-24 -3 0 21 -41 43 -93 51 -25 4 -54 16 -63 27 -15 15 -26 18 -59 12 -53 -8
-75 -29 -75 -72 0 -28 -2 -32 -14 -23 -8 6 -18 11 -22 9 -5 -1 -20 4 -33 11
-13 7 -43 15 -65 16 -58 4 -119 21 -131 37 -5 8 -18 12 -28 10 -23 -5 -97 55
-97 79 0 10 -7 19 -15 19 -10 0 -15 10 -15 30 0 21 -5 30 -16 30 -8 0 -22 7
-30 15 -20 20 -31 19 -51 -4 -16 -19 -39 -19 -28 0 4 5 -3 9 -15 9 -17 0 -21
-5 -18 -27 2 -23 -1 -29 -19 -31 -19 -3 -23 1 -23 22 0 14 -4 28 -10 31 -17
10 -12 112 5 119 8 3 15 12 15 20 0 17 -59 49 -81 44 -9 -2 -15 8 -17 26 l-4
29 66 -6 c40 -4 66 -2 66 3 0 6 9 10 20 10 26 0 26 31 0 50 -30 22 -24 33 15
26 28 -6 35 -4 35 9 0 9 9 15 25 15 14 0 25 -4 25 -10 0 -5 10 -10 23 -10 13
0 32 -7 43 -15 10 -8 27 -15 37 -15 9 0 17 -4 17 -8 0 -12 120 -6 133 7 6 6
21 11 34 11 18 0 23 -6 23 -26 0 -24 2 -25 33 -19 17 4 34 11 37 15 10 15 78
21 84 8 5 -10 7 -10 12 0 8 18 24 15 24 -5 0 -14 3 -13 20 5 21 23 64 30 75
12 3 -5 14 -10 24 -10 10 0 25 -9 32 -20 18 -25 79 -39 79 -18 0 30 53 67 108
74 28 3 52 10 52 15 0 5 9 9 20 9 11 0 20 5 20 10 0 6 9 10 20 10 11 0 20 5
20 11 0 6 11 25 25 41 14 16 30 50 37 75 7 31 17 47 30 51 13 3 18 11 15 22
-4 15 4 19 39 25 24 3 44 12 44 18 0 13 45 37 67 37 7 0 13 5 13 11 0 6 11 20
24 30 14 11 28 28 31 39 4 11 10 18 14 16 8 -5 64 13 97 31 32 18 104 28 104
14 0 -16 31 -13 52 5 14 14 20 15 33 4 11 -9 39 -11 100 -7 51 4 85 2 85 -3 0
-6 5 -10 10 -10 6 0 10 7 10 16 0 9 12 28 28 43 15 15 33 36 41 47 19 29 61
21 61 -12 0 -17 6 -24 20 -24 12 0 20 -7 20 -16 0 -13 7 -15 30 -11 17 4 30 2
30 -3 0 -6 -4 -10 -10 -10 -5 0 -10 -6 -10 -13 0 -8 13 -13 34 -14 28 0 36 4
40 23 4 13 13 24 21 24 24 0 20 61 -4 67 -22 5 -35 45 -26 74 8 23 5 23 -65 4
-71 -19 -114 -19 -130 0 -9 11 -16 12 -26 4 -7 -6 -18 -8 -24 -4 -13 8 -13 68
1 82 6 6 9 23 7 39 -3 26 -7 29 -47 32 -50 4 -81 -17 -81 -55 0 -18 -5 -23
-25 -23 -14 0 -25 -4 -25 -9 0 -15 -49 -19 -61 -5 -8 9 -34 14 -79 14 -62 0
-70 -2 -97 -30 -24 -24 -32 -28 -41 -18 -15 19 -26 88 -14 88 6 0 26 10 46 23
32 20 35 26 35 72 1 44 -2 51 -25 62 -14 6 -31 9 -39 7 -9 -4 -17 11 -26 50
-9 43 -16 56 -31 56 -10 0 -18 5 -18 10 0 6 -6 10 -12 9 -34 -4 -58 2 -58 16
0 8 -9 19 -20 25 -23 13 -27 45 -5 54 9 3 15 19 16 43 0 30 2 34 9 18 7 -17 9
-16 9 9 1 23 15 43 61 86 33 31 60 61 60 68 0 7 5 12 12 12 9 0 9 3 1 11 -6 6
-9 26 -6 43 3 22 0 36 -11 45 -9 7 -16 19 -16 25 1 24 -56 126 -75 135 -19 9
-19 10 3 10 28 1 19 21 -9 21 -10 0 -19 5 -19 10 0 6 5 10 11 10 6 0 1 11 -10
25 -11 14 -23 39 -26 56 -5 23 -14 31 -36 36 -18 3 -26 10 -22 17 12 18 11 76
-2 125 -8 35 -16 47 -33 49 -12 2 -22 10 -22 19 0 42 -60 133 -88 133 -11 0
-13 8 -7 38 4 20 10 38 15 40 4 2 6 40 3 85 -4 63 -9 86 -23 98 -10 9 -22 32
-25 53 -4 20 -11 36 -16 36 -5 0 -9 7 -9 16 0 9 -9 27 -20 41 -13 17 -20 41
-20 69 0 34 -4 44 -16 44 -10 0 -14 6 -11 14 3 7 -1 33 -10 57 -11 34 -12 48
-3 62 9 15 8 19 -8 24 -15 4 -21 17 -27 58 -3 30 -13 59 -21 66 -21 18 -18 49
6 49 12 0 20 7 20 18 1 21 42 53 75 56 13 1 30 8 38 14 17 14 27 6 27 -23 0
-21 2 -21 62 -13 34 4 64 12 67 17 4 4 34 11 69 15 l63 7 -12 -23 c-6 -13 -27
-42 -45 -65 -36 -44 -56 -84 -60 -121 -3 -21 0 -22 34 -16 41 7 78 43 88 86 3
16 15 33 27 40 12 6 47 30 77 54 31 23 67 44 80 46 24 3 25 1 31 -74 6 -68 11
-83 43 -128 52 -72 87 -110 103 -110 7 0 13 -4 13 -10 0 -5 8 -10 18 -10 9 0
26 -7 36 -15 11 -8 38 -15 60 -15 23 0 47 -7 59 -17 18 -17 20 -17 39 7 l20
24 -23 19 c-13 11 -33 17 -46 14 -19 -3 -15 4 26 52 70 81 91 125 91 192 0 87
30 89 103 10 47 -50 60 -90 51 -154 -5 -37 -11 -51 -28 -58 -25 -12 -49 -46
-41 -59 3 -4 17 -5 33 -1 18 5 35 3 50 -7 18 -12 28 -13 41 -5 9 6 31 14 49
18 25 5 32 3 32 -9 0 -20 53 -22 72 -2 8 7 29 17 47 21 18 4 35 13 37 20 3 7
16 16 29 19 18 5 27 17 36 49 6 23 17 49 23 57 7 8 16 23 19 33 4 9 13 17 21
17 9 0 20 9 26 20 6 11 17 20 25 20 11 0 15 12 15 41 0 37 2 40 23 33 12 -3
22 -7 22 -8 1 0 6 -14 13 -29 12 -28 12 -28 33 -8 12 11 19 23 16 28 -3 5 14
15 39 22 39 12 44 17 44 42 0 22 5 29 20 29 11 0 20 7 20 15 0 8 -9 15 -20 15
-13 0 -20 7 -20 20 0 11 -6 20 -14 20 -13 0 -26 20 -26 39 0 5 11 6 25 3 14
-2 25 -10 25 -17 0 -8 16 -14 41 -17 36 -3 42 -1 50 20 5 13 9 33 9 46 0 14 6
22 18 23 9 1 24 3 32 5 12 2 14 -6 12 -44 -3 -39 -1 -48 12 -48 9 0 16 -6 16
-12 0 -7 5 -53 10 -101 7 -60 7 -108 0 -153 -8 -46 -7 -77 1 -106 8 -32 8 -51
-2 -80 -9 -30 -10 -41 -1 -50 7 -7 12 -22 12 -34 0 -13 5 -26 10 -29 6 -3 10
-32 10 -63 1 -64 10 -110 39 -197 11 -33 22 -81 26 -108 3 -26 10 -45 14 -43
4 3 13 1 20 -3 10 -6 10 -17 2 -47 -15 -53 -14 -64 5 -64 25 0 10 -153 -19
-194 -15 -22 -22 -47 -23 -93 -1 -35 -8 -70 -14 -78 -9 -11 -9 -23 1 -52 8
-22 12 -73 10 -122 -2 -74 0 -83 13 -72 8 7 24 10 35 6 10 -3 22 -1 26 5 3 5
17 10 31 10 13 0 24 5 24 11 0 6 9 24 20 40 22 30 23 55 19 327 0 51 1 96 4
98 10 10 47 -17 60 -44 7 -15 12 -35 9 -45 -2 -10 4 -27 13 -36 9 -10 15 -22
14 -27 -6 -35 37 -16 51 22 6 14 10 80 11 148 0 68 4 140 9 160 4 21 4 34 -1
30 -11 -6 -11 -6 -14 121 -1 55 -5 137 -9 182 l-7 82 27 3 c26 3 30 10 50 83
17 60 23 111 24 205 1 69 5 154 9 190 3 36 3 90 -1 120 -7 52 7 124 33 172 5
9 8 75 8 145 -1 82 5 155 15 203 9 41 16 88 16 104 0 16 12 64 27 105 l27 76
-16 150 c-10 92 -14 194 -11 265 5 97 -10 454 -22 555 -13 105 -47 212 -105
330 -16 33 -38 82 -50 110 -11 27 -27 56 -35 65 -18 20 -45 123 -45 173 0 21
-5 48 -12 60 -7 12 -15 54 -18 93 -6 71 -7 71 -68 133 -40 39 -65 75 -72 99
-5 20 -24 57 -40 81 -17 24 -30 48 -30 53 0 11 -25 38 -35 38 -23 0 -88 97
-106 157 -6 23 -20 51 -29 61 -10 10 -21 33 -25 52 -14 65 -83 147 -169 204
-45 29 -121 83 -170 120 -48 37 -124 86 -167 107 -79 40 -91 52 -103 110 -9
40 -87 85 -161 93 -62 7 -109 21 -160 48 -25 13 -75 26 -120 33 -27 3 -93 18
-120 26 -16 4 -50 9 -75 10 -41 2 -77 10 -120 26 -8 4 -22 5 -32 4 -9 -1 -24
11 -34 28 -21 35 -59 51 -120 51 -23 0 -55 6 -71 14 -15 8 -41 20 -58 26 -16
7 -38 16 -47 21 -33 17 -145 29 -267 29 -119 0 -229 18 -258 41 -18 15 -701
17 -793 3z m266 -1599 c10 -8 29 -15 42 -15 12 0 22 -4 22 -8 0 -10 88 -32
128 -32 15 -1 45 -9 67 -20 22 -11 51 -20 65 -20 14 0 52 -7 84 -15 33 -8 63
-12 68 -9 4 3 16 0 27 -5 19 -11 55 -16 160 -25 37 -3 60 0 77 10 18 13 39 14
106 8 46 -4 86 -7 90 -6 5 1 61 2 127 3 112 0 201 -12 201 -29 0 -4 15 -9 33
-10 17 -1 73 -11 122 -22 50 -11 113 -25 140 -32 28 -6 58 -17 68 -26 9 -8 17
-11 17 -6 0 5 7 -2 16 -14 8 -12 20 -22 26 -22 6 0 26 -11 43 -25 18 -13 35
-22 37 -20 3 3 15 -6 28 -20 13 -14 29 -25 37 -25 7 0 18 -9 25 -20 7 -11 18
-20 25 -20 7 0 20 -16 29 -36 9 -20 24 -38 32 -41 12 -5 32 -24 109 -105 7 -7
30 -29 53 -48 22 -19 40 -40 40 -47 0 -7 5 -13 11 -13 5 0 15 -13 20 -29 6
-16 18 -32 27 -35 9 -3 31 -14 47 -25 17 -10 33 -16 37 -14 4 2 13 -16 20 -41
9 -36 18 -48 40 -55 15 -6 28 -17 28 -25 0 -8 12 -37 26 -63 15 -29 23 -58 21
-73 -3 -14 2 -35 13 -50 9 -14 20 -38 24 -55 7 -31 9 -40 19 -65 3 -8 8 -32
12 -53 3 -21 10 -35 14 -32 5 2 14 -1 20 -9 9 -11 7 -26 -9 -67 -23 -62 -23
-62 -10 -54 5 3 12 -7 15 -22 9 -39 27 -76 45 -90 13 -10 13 -12 -2 -18 -23
-9 -25 -75 -3 -75 38 0 42 -103 4 -113 -16 -4 -19 -14 -19 -61 0 -42 -4 -56
-14 -56 -9 0 -17 -15 -21 -40 -4 -23 -12 -40 -20 -40 -8 0 -15 -10 -17 -22 -3
-20 -9 -23 -43 -21 -57 2 -55 2 -55 18 0 7 -6 18 -14 22 -8 4 -16 24 -18 43
-3 32 -6 35 -40 41 -21 3 -38 3 -38 -1 0 -19 -51 -19 -83 -1 -19 11 -44 24
-56 30 -11 6 -31 16 -43 23 -43 21 -90 17 -132 -14 -24 -17 -52 -28 -73 -28
-24 0 -33 -4 -33 -16 0 -13 -3 -14 -14 -5 -8 7 -17 8 -20 3 -3 -6 -23 -13 -43
-17 -34 -6 -68 -36 -68 -59 0 -12 -33 -24 -67 -25 -20 -1 -28 -6 -28 -18 0
-16 -2 -16 -11 -3 -8 11 -12 12 -16 3 -2 -7 -13 -13 -22 -13 -10 0 -21 -3 -24
-7 -4 -3 -24 -8 -45 -10 -20 -2 -50 -8 -67 -13 -16 -5 -55 -12 -85 -16 -77 -8
-228 -64 -239 -87 -2 -5 -14 -12 -28 -18 -13 -5 -22 -13 -19 -18 8 -13 -15
-29 -53 -36 -18 -3 -40 -12 -48 -20 -8 -8 -20 -15 -26 -15 -12 0 -57 -91 -57
-116 0 -8 -4 -14 -9 -14 -5 0 -12 -17 -16 -37 -4 -21 -14 -46 -22 -55 -9 -10
-12 -18 -8 -18 5 0 0 -6 -11 -14 -10 -8 -19 -18 -20 -23 -2 -19 -23 -60 -38
-72 -22 -19 -20 -31 7 -31 19 -1 20 -2 6 -13 -9 -7 -19 -36 -23 -72 -4 -32
-10 -62 -15 -65 -13 -8 -19 -70 -7 -70 6 0 4 -6 -5 -13 -19 -15 -32 -76 -19
-92 13 -15 1 -85 -15 -85 -7 0 -18 -7 -25 -15 -10 -12 -9 -15 4 -15 13 0 15
-6 10 -27 -4 -16 -13 -32 -21 -38 -11 -8 -11 -14 1 -36 7 -14 17 -57 21 -95 4
-38 12 -72 18 -76 7 -4 7 -11 -2 -22 -12 -14 -10 -16 18 -16 23 0 31 -5 31
-18 0 -10 9 -35 20 -57 22 -44 27 -121 8 -128 -10 -3 -10 -9 0 -26 6 -11 12
-34 12 -51 0 -25 4 -30 25 -30 18 0 25 -5 25 -20 0 -11 5 -20 10 -20 6 0 10
-33 10 -80 0 -77 1 -80 25 -86 14 -3 25 -10 25 -15 0 -5 7 -9 15 -9 8 0 15 -9
15 -20 0 -11 5 -20 10 -20 6 0 10 -9 10 -20 0 -15 -7 -20 -25 -20 -22 0 -25
-4 -25 -40 0 -29 -4 -40 -15 -40 -8 0 -15 -9 -15 -20 0 -17 -5 -19 -25 -14
-20 5 -26 1 -34 -18 -5 -13 -16 -30 -25 -37 -9 -7 -16 -20 -16 -28 0 -8 -6
-13 -13 -10 -7 3 -23 -10 -36 -29 -13 -18 -32 -36 -42 -39 -10 -4 -19 -10 -19
-14 0 -5 -19 -11 -42 -15 -23 -4 -48 -12 -55 -18 -7 -6 -26 -8 -43 -5 -16 4
-32 2 -35 -2 -6 -11 -125 18 -146 35 -8 8 -21 14 -27 14 -6 0 -22 11 -36 25
-14 14 -31 25 -39 25 -26 0 -34 24 -35 108 -1 76 0 82 20 82 18 0 20 5 16 41
-3 35 1 46 24 69 15 15 34 30 43 33 8 4 14 17 14 29 -1 17 -2 18 -6 6 -2 -10
-14 -18 -25 -18 -16 0 -19 5 -14 23 3 12 6 28 6 35 0 6 7 12 15 12 8 0 15 7
15 16 0 8 11 30 25 48 21 27 25 44 25 98 0 35 -3 68 -7 72 -4 4 -6 23 -4 42 1
20 -2 34 -9 34 -6 0 -15 10 -20 23 -8 20 -9 21 -10 2 -3 -46 -23 32 -25 97 -2
63 -1 67 22 73 17 4 22 9 16 18 -6 7 -6 58 -1 126 9 128 6 135 -49 126 -27 -5
-32 -2 -36 17 -3 16 -5 12 -6 -12 -2 -35 -30 -80 -50 -80 -6 0 -11 -7 -11 -15
0 -9 -7 -18 -15 -21 -11 -4 -15 -23 -16 -63 -1 -31 -4 -46 -6 -34 -3 14 -9 20
-19 16 -8 -3 -21 1 -30 8 -13 10 -16 9 -21 -9 -4 -18 -10 -21 -32 -16 -24 6
-25 5 -8 -8 18 -13 18 -15 2 -28 -14 -12 -18 -12 -26 1 -5 8 -9 24 -9 37 0 23
-12 26 -45 12 -17 -7 -17 -9 -2 -9 36 -2 15 -21 -23 -21 l-39 0 6 -83 6 -82
-35 -13 c-29 -10 -35 -17 -32 -37 2 -22 -2 -25 -28 -25 -29 0 -30 -1 -24 -34
6 -31 4 -35 -16 -38 -22 -3 -23 -7 -20 -72 3 -82 -2 -103 -22 -87 -10 8 -17 6
-29 -7 -13 -15 -15 -25 -7 -53 13 -45 13 -46 -9 -52 -14 -3 -19 -14 -19 -41 0
-31 3 -36 24 -36 15 0 24 6 24 15 0 8 7 15 15 15 8 0 15 -7 15 -15 0 -10 10
-15 29 -15 23 0 33 -7 45 -32 22 -44 21 -79 -4 -85 -11 -3 -20 -13 -20 -22 0
-9 -9 -22 -20 -29 -11 -7 -20 -23 -20 -36 0 -13 -4 -26 -10 -28 -5 -1 -12 -25
-16 -53 -3 -27 -8 -57 -12 -65 -6 -14 -7 -25 -11 -62 0 -10 -8 -18 -16 -18
-13 0 -15 -7 -9 -35 5 -27 3 -36 -10 -41 -9 -3 -16 -10 -16 -15 0 -14 -33 -49
-47 -49 -7 0 -13 -11 -13 -25 0 -19 -5 -25 -21 -25 -20 0 -21 -4 -15 -52 4
-29 8 -62 9 -73 1 -11 6 -26 10 -33 5 -8 2 -15 -9 -19 -10 -4 -19 -2 -22 5 -6
18 -20 14 -27 -8 -10 -30 -72 -28 -85 3 -8 19 -9 17 -9 -15 -1 -20 -7 -40 -13
-45 -7 -4 -48 -6 -90 -6 -62 2 -78 -1 -78 -12 0 -21 -37 -19 -42 3 -3 12 -15
17 -39 17 -32 0 -34 -2 -37 -37 l-3 -38 -50 0 c-44 0 -49 2 -50 23 l-2 22 -4
-22 c-5 -28 -23 -30 -23 -3 0 17 -7 20 -49 20 -48 0 -49 -1 -55 -35 -6 -31
-11 -35 -36 -35 -20 0 -30 5 -30 15 0 8 9 15 20 15 13 0 20 7 20 20 0 11 7 20
15 20 8 0 15 9 15 20 0 15 7 20 26 20 19 0 25 4 22 18 -2 9 -12 18 -23 18 -11
1 -28 2 -37 3 -10 1 -18 7 -18 15 0 24 -21 30 -27 7 -8 -31 -53 -29 -53 3 0
13 -3 38 -6 55 -6 27 -4 31 15 31 12 0 21 6 21 14 0 29 -20 66 -35 66 -8 0
-15 9 -15 20 0 11 -7 20 -15 20 -8 0 -15 -4 -15 -10 0 -5 -7 -10 -15 -10 -8 0
-15 5 -15 10 0 6 6 10 14 10 7 0 16 10 19 22 7 26 -1 38 -12 19 -5 -7 -14 -10
-20 -6 -8 4 -9 11 -2 19 15 18 2 56 -20 56 -14 0 -19 7 -19 26 0 18 -4 25 -14
21 -8 -3 -22 3 -32 14 -10 11 -12 19 -6 19 7 0 12 16 12 40 l0 40 -40 0 c-39
0 -40 1 -40 35 0 29 -4 35 -21 35 -19 0 -20 4 -14 39 4 24 2 42 -4 46 -6 3
-11 22 -11 41 0 19 -4 34 -10 34 -5 0 -10 18 -10 40 0 33 -3 40 -20 40 -13 0
-20 -7 -20 -19 0 -13 -9 -20 -30 -23 -26 -4 -30 -1 -30 19 0 13 5 23 10 23 6
0 10 9 10 20 0 13 7 20 20 20 11 0 20 6 20 14 0 18 20 25 53 19 23 -5 27 -10
27 -39 0 -24 5 -34 15 -34 8 0 15 9 15 20 0 13 7 20 20 20 38 0 22 29 -17 32
-38 3 -38 3 -36 43 2 22 7 41 13 43 16 6 12 32 -5 32 -11 0 -15 11 -15 40 0
27 -4 40 -14 40 -7 0 -16 9 -19 20 -8 33 -25 23 -32 -20 -5 -30 -11 -40 -26
-40 -12 0 -19 7 -19 20 0 13 -7 20 -20 20 -11 0 -20 5 -20 10 0 6 -7 10 -15
10 -8 0 -15 5 -15 11 0 7 10 9 24 5 26 -6 44 8 26 19 -6 4 -8 16 -5 26 4 11 1
27 -6 36 -12 14 -9 15 29 8 34 -5 42 -4 42 9 0 8 8 20 18 25 16 10 16 12 0 25
-10 7 -18 21 -18 30 0 11 -9 16 -28 16 -28 0 -30 3 -51 95 -13 52 -27 95 -32
95 -5 0 -9 -7 -9 -15 0 -8 -7 -15 -15 -15 -10 0 -15 11 -15 35 0 24 5 35 15
35 8 0 15 9 15 20 0 13 -7 20 -20 20 -22 0 -23 3 -14 49 8 36 21 41 27 9 3
-14 5 -9 6 15 1 34 3 37 31 37 23 0 30 4 30 20 0 11 5 20 10 20 6 0 10 -8 10
-18 0 -16 25 -32 78 -47 12 -4 22 -14 22 -25 0 -11 12 -24 29 -31 25 -11 29
-17 24 -41 -5 -24 -2 -28 16 -28 14 0 21 -6 21 -20 0 -13 7 -20 20 -20 13 0
20 7 20 19 0 29 30 35 55 11 12 -11 34 -20 49 -20 19 0 29 -6 33 -20 4 -14 14
-20 33 -20 21 0 31 -6 36 -22 6 -20 8 -20 19 -5 16 23 25 21 25 -3 0 -11 5
-20 10 -20 6 0 10 -7 10 -15 0 -8 9 -15 20 -15 11 0 20 6 20 13 0 7 9 18 20
25 18 11 20 10 21 -10 1 -13 0 -30 -1 -38 -2 -13 1 -13 16 1 15 13 40 16 127
14 98 -2 107 -1 107 16 0 21 15 25 25 9 5 -8 11 -7 21 1 17 14 18 36 2 41 -8
3 -4 16 12 39 14 18 23 42 21 53 -1 10 3 23 11 27 18 12 51 11 43 -1 -4 -6 1
-7 11 -3 10 4 22 0 30 -11 11 -16 16 -17 43 -5 16 7 27 17 25 21 -3 4 1 5 9 2
10 -4 16 6 21 34 3 22 20 66 36 98 23 43 32 75 35 127 3 38 7 73 10 77 7 11
69 -7 73 -20 2 -6 9 -10 15 -10 20 0 137 -117 137 -136 0 -10 -11 -34 -25 -54
-51 -73 -3 -98 98 -50 58 27 68 36 77 68 5 20 10 44 10 53 0 23 22 30 112 36
70 5 77 4 89 -16 18 -28 29 -27 29 4 0 14 5 25 10 25 6 0 10 8 11 18 0 13 2
14 6 2 13 -33 53 -41 53 -11 0 11 6 21 13 24 9 3 9 7 -1 20 -12 14 -26 149
-24 218 1 15 -8 35 -18 44 -11 10 -17 22 -14 26 3 5 -4 18 -15 30 -23 25 -45
109 -38 144 2 14 1 25 -3 25 -4 0 -10 9 -13 20 -3 11 -12 20 -21 20 -9 0 -16
-8 -16 -20 0 -11 -4 -20 -10 -20 -5 0 -10 8 -10 18 0 9 -9 23 -21 30 -12 7
-18 16 -15 19 10 11 -26 43 -48 43 -20 0 -45 17 -113 78 -14 12 -32 22 -38 22
-7 0 -39 14 -70 30 -31 17 -72 30 -91 30 -19 0 -34 4 -34 9 0 4 -12 8 -27 8
-30 1 -52 5 -68 14 -5 3 -43 16 -84 29 -40 13 -84 34 -97 47 -13 12 -33 23
-44 23 -12 0 -31 5 -43 12 -12 7 -29 13 -37 14 -8 2 -34 6 -57 9 -24 3 -43 10
-43 16 0 5 -9 9 -19 9 -11 0 -23 5 -26 10 -3 6 -26 10 -51 10 -24 0 -44 4 -44
10 0 9 -62 30 -90 30 -13 0 -13 -1 0 -10 12 -8 10 -10 -10 -11 -14 0 -43 -11
-65 -24 -88 -53 -112 -60 -201 -57 l-41 2 -5 50 c-5 52 -26 79 -60 80 -13 0
-18 8 -18 30 0 23 -5 30 -19 30 -14 0 -21 10 -26 37 -4 21 -12 41 -18 45 -8 5
-11 33 -10 78 2 70 -4 83 -27 55 -16 -19 -30 -19 -30 0 0 9 -7 18 -15 21 -8 4
-15 12 -15 20 0 8 7 14 15 14 9 0 15 9 15 23 0 18 5 23 23 23 19 -1 22 3 19
32 -3 39 13 72 33 72 9 0 15 9 15 21 0 12 8 23 20 26 11 3 20 11 20 18 0 7 -9
15 -20 18 -26 7 -26 37 0 44 15 4 20 14 20 39 0 27 4 34 20 34 11 0 20 7 20
15 0 18 -43 62 -67 68 -14 4 -13 5 5 6 17 1 22 7 22 31 0 16 -7 33 -16 38 -23
13 -9 82 17 82 11 0 19 7 19 15 0 8 9 15 20 15 13 0 20 7 20 20 0 11 -4 20
-10 20 -5 0 -10 9 -10 19 0 12 -8 21 -22 24 l-23 4 23 8 c16 5 22 15 22 36 0
22 5 29 20 29 15 0 20 7 20 25 0 19 5 25 21 25 14 0 19 5 16 14 -4 11 -1 13
10 9 13 -5 15 2 12 40 -4 46 -3 47 24 47 26 0 28 2 22 29 -8 37 4 56 82 140
35 36 63 71 63 76 1 18 91 89 118 93 15 2 37 13 49 24 25 23 53 18 54 -9 0
-14 2 -13 9 5 5 12 18 22 29 22 13 0 21 8 23 22 2 17 13 25 43 32 22 5 43 14
47 19 4 7 63 11 151 11 120 1 148 4 163 18 11 9 43 18 72 21 29 3 59 10 68 17
11 10 18 10 26 2 7 -7 22 -12 35 -12 13 0 23 -4 23 -9 0 -6 16 -7 36 -4 37 6
84 44 84 68 0 9 14 15 38 18 20 2 44 4 53 5 8 1 24 -5 35 -13z m2634 -1806 c0
-11 -4 -17 -10 -14 -5 3 -10 13 -10 21 0 8 5 14 10 14 6 0 10 -9 10 -21z
m-618 -456 c10 -9 18 -21 18 -27 0 -15 71 -61 88 -58 21 5 116 -29 125 -44 4
-7 13 -11 20 -9 15 6 27 -3 54 -41 13 -19 20 -40 16 -52 -3 -12 3 -33 14 -49
34 -50 24 -133 -17 -133 -11 0 -20 -7 -20 -15 0 -25 -39 -17 -81 16 -21 17
-39 28 -39 24 0 -3 -10 1 -22 9 -12 9 -33 16 -46 16 -13 0 -46 13 -75 29 -65
35 -92 42 -187 47 -41 2 -92 6 -112 8 -26 3 -38 0 -42 -11 -3 -8 -10 -12 -16
-8 -13 8 -80 -5 -80 -16 0 -5 10 -9 23 -9 18 0 19 -2 7 -10 -19 -12 -13 -12
27 -1 20 6 35 6 38 0 4 -5 42 -9 86 -9 63 0 79 -3 79 -15 0 -8 6 -12 14 -9 14
5 46 -20 46 -37 0 -5 7 -9 16 -9 10 0 14 -7 12 -17 -2 -10 -11 -16 -19 -14 -8
2 -45 12 -84 21 -38 10 -94 25 -123 34 -34 11 -73 15 -110 13 -31 -3 -65 -1
-74 4 -10 5 -19 5 -22 0 -4 -5 -24 -12 -45 -16 -22 -4 -50 -15 -62 -26 -12
-10 -35 -19 -51 -19 -15 0 -28 -4 -28 -9 0 -11 -39 -25 -47 -18 -10 10 19 48
33 43 12 -5 20 17 15 47 0 4 6 7 16 7 9 0 14 2 11 5 -6 6 -140 -25 -148 -34
-14 -16 -61 -34 -69 -25 -14 15 -22 64 -11 64 5 0 10 -4 10 -10 0 -19 32 -10
37 10 3 11 9 20 14 20 5 0 9 9 9 20 0 14 7 20 24 20 26 0 51 23 42 38 -8 13
18 34 29 24 5 -4 5 1 2 11 -5 14 -1 17 22 17 20 0 30 6 34 19 2 10 17 21 32
25 14 4 43 17 63 29 20 12 62 30 92 41 30 10 62 24 70 30 29 24 106 41 175 40
48 -1 64 1 50 7 -14 6 -6 8 25 4 29 -3 54 0 70 9 34 19 50 19 72 -1z m-2800
-122 c5 -15 48 -24 48 -10 0 9 5 8 18 -3 9 -8 36 -20 60 -28 23 -7 47 -19 53
-27 6 -7 21 -13 33 -13 15 0 17 -3 7 -9 -9 -6 -10 -11 -2 -15 13 -9 14 -55 1
-76 -6 -10 -32 -15 -97 -17 -48 -1 -105 -5 -128 -9 -56 -9 -137 -7 -225 7 -76
13 -100 25 -100 53 0 9 -7 16 -15 16 -8 0 -15 8 -14 18 0 10 3 12 6 5 8 -22
33 -14 60 17 13 17 33 30 43 30 10 0 20 7 24 15 4 10 14 13 36 9 23 -5 30 -3
30 9 0 10 6 14 14 11 8 -3 27 1 43 10 30 16 99 21 105 7z m3418 -61 c0 -5 -5
-12 -11 -16 -14 -8 -33 11 -25 25 7 11 36 4 36 -9z m-3773 -142 c-3 -7 -5 -2
-5 12 0 14 2 19 5 13 2 -7 2 -19 0 -25z m216 -336 c6 -69 21 -100 81 -167 24
-27 42 -53 40 -57 -7 -10 -30 -10 -52 1 -9 4 -35 17 -57 27 -21 10 -53 32 -69
48 -26 26 -30 36 -29 83 1 32 7 59 17 68 8 8 18 24 21 35 3 11 14 20 24 20 15
0 19 -11 24 -58z m-896 -84 c-3 -8 -6 -5 -6 6 -1 11 2 17 5 13 3 -3 4 -12 1
-19z m2110 -190 c-3 -8 -6 -5 -6 6 -1 11 2 17 5 13 3 -3 4 -12 1 -19z m-37
-262 c0 -3 -4 -8 -10 -11 -5 -3 -10 -1 -10 4 0 6 5 11 10 11 6 0 10 -2 10 -4z
m546 -133 c-11 -11 -19 6 -11 24 8 17 8 17 12 0 3 -10 2 -21 -1 -24z m-1013
-40 c-7 -2 -19 -2 -25 0 -7 3 -2 5 12 5 14 0 19 -2 13 -5z m544 -35 c-3 -8 -6
-5 -6 6 -1 11 2 17 5 13 3 -3 4 -12 1 -19z m620 -150 c-3 -8 -6 -5 -6 6 -1 11
2 17 5 13 3 -3 4 -12 1 -19z m-2404 -485 c-7 -2 -19 -2 -25 0 -7 3 -2 5 12 5
14 0 19 -2 13 -5z m37 -213 c0 -5 -5 -10 -11 -10 -5 0 -7 5 -4 10 3 6 8 10 11
10 2 0 4 -4 4 -10z m10 -70 c0 -5 -7 -10 -15 -10 -8 0 -15 5 -15 10 0 6 7 10
15 10 8 0 15 -4 15 -10z m7 -82 c-3 -8 -6 -5 -6 6 -1 11 2 17 5 13 3 -3 4 -12
1 -19z m113 -33 c0 -8 -4 -15 -10 -15 -5 0 -10 7 -10 15 0 8 5 15 10 15 6 0
10 -7 10 -15z m1960 -37 c0 -7 -5 -20 -10 -28 -8 -12 -10 -9 -10 13 0 15 5 27
10 27 6 0 10 -6 10 -12z m-1925 -88 c3 -5 -3 -10 -14 -10 -12 0 -21 5 -21 10
0 6 6 10 14 10 8 0 18 -4 21 -10z m2015 -88 c14 -2 29 -10 33 -18 5 -8 12 -12
16 -9 15 9 45 -33 34 -47 -6 -7 -13 -23 -17 -34 -6 -20 -4 -21 39 -17 36 5 45
3 45 -10 0 -8 -6 -18 -12 -20 -8 -3 -6 -6 4 -6 10 -1 25 7 35 18 10 10 30 21
46 25 22 5 27 3 27 -13 0 -15 28 -38 35 -29 9 12 13 58 5 63 -23 14 -9 26 23
20 43 -10 51 -15 38 -28 -6 -6 -11 -22 -11 -35 0 -15 -5 -22 -12 -19 -9 3 -14
-8 -15 -34 -2 -38 -2 -39 32 -39 19 0 35 -4 35 -10 0 -5 9 -10 20 -10 11 0 20
-4 20 -10 0 -5 14 -10 30 -10 20 0 30 -5 30 -15 0 -14 -22 -20 -63 -15 -10 1
-24 -5 -30 -13 -19 -23 -57 -32 -57 -13 0 9 -4 16 -10 16 -5 0 -10 -4 -10 -9
0 -15 -72 -24 -80 -11 -5 9 -23 10 -58 5 -29 -4 -52 -3 -56 3 -7 12 -179 4
-214 -10 -42 -17 -55 -20 -92 -23 -19 -1 -49 -5 -66 -9 -33 -7 -111 8 -154 31
-14 7 -42 13 -62 13 -20 0 -49 5 -65 11 -15 7 -41 11 -56 10 -15 -2 -34 2 -41
8 -19 16 -8 61 14 61 11 0 20 10 23 30 4 16 19 43 35 60 26 26 37 30 89 32 46
1 68 -4 95 -20 69 -43 172 -20 221 49 15 20 27 41 27 46 0 6 11 15 25 21 22
10 25 9 25 -8 0 -13 7 -20 20 -20 17 0 20 7 20 40 0 34 -3 40 -22 41 l-23 2
23 4 c12 2 23 12 23 21 1 9 5 -1 8 -23 5 -33 10 -41 31 -43z m-1970 -12 c0 -5
-2 -10 -4 -10 -3 0 -8 5 -11 10 -3 6 -1 10 4 10 6 0 11 -4 11 -10z m130 -4 c0
-8 -4 -18 -10 -21 -5 -3 -10 3 -10 14 0 12 5 21 10 21 6 0 10 -6 10 -14z m130
-7 c0 -5 -4 -9 -10 -9 -5 0 -10 7 -10 16 0 8 5 12 10 9 6 -3 10 -10 10 -16z
m3347 -471 c-3 -8 -6 -5 -6 6 -1 11 2 17 5 13 3 -3 4 -12 1 -19z m183 -13 c0
-27 -12 -32 -29 -12 -8 10 -7 17 1 25 19 19 28 14 28 -13z m-368 -177 c-7 -7
-12 -8 -12 -2 0 14 12 26 19 19 2 -3 -1 -11 -7 -17z m-2784 -6 c2 -7 -3 -12
-12 -12 -9 0 -16 7 -16 16 0 17 22 14 28 -4z m-58 -2 c0 -5 -4 -10 -10 -10 -5
0 -10 5 -10 10 0 6 5 10 10 10 6 0 10 -4 10 -10z m97 -15 c-15 -32 -27 -32
-27 0 0 18 5 25 19 25 17 0 18 -3 8 -25z m93 -21 c0 -8 -10 -14 -25 -14 -18 0
-25 5 -25 19 0 14 6 17 25 13 14 -2 25 -11 25 -18z m2627 20 c-3 -3 -12 -4
-19 -1 -8 3 -5 6 6 6 11 1 17 -2 13 -5z m-1257 -56 c0 -18 -2 -20 -9 -8 -6 8
-7 18 -5 22 9 14 14 9 14 -14z m-1332 -65 c-5 -26 -38 -29 -38 -4 0 15 6 21
21 21 14 0 19 -5 17 -17z m62 13 c0 -11 -19 -15 -25 -6 -3 5 1 10 9 10 9 0 16
-2 16 -4z m2304 -32 c28 -11 18 -34 -14 -34 -30 0 -43 23 -17 33 6 3 13 6 14
6 1 1 8 -2 17 -5z m-2174 -204 c0 -5 -6 -10 -14 -10 -8 0 -18 5 -21 10 -3 6 3
10 14 10 12 0 21 -4 21 -10z m1697 -196 c-3 -3 -12 -4 -19 -1 -8 3 -5 6 6 6
11 1 17 -2 13 -5z m-1590 -140 c-3 -3 -12 -4 -19 -1 -8 3 -5 6 6 6 11 1 17 -2
13 -5z m-87 -68 c0 -3 -4 -8 -10 -11 -5 -3 -10 -1 -10 4 0 6 5 11 10 11 6 0
10 -2 10 -4z m1880 -1074 c0 -24 -36 -46 -44 -27 -3 9 0 12 8 9 8 -3 16 4 19
15 6 26 17 27 17 3z m-2312 -39 c-4 -22 -22 -20 -26 1 -2 10 3 16 13 16 10 0
15 -7 13 -17z m-214 -12 c3 -5 -5 -11 -19 -13 -20 -4 -23 -3 -14 8 13 16 25
18 33 5z m416 -20 c0 -5 3 -18 7 -28 6 -16 5 -16 -10 -4 -19 15 -23 41 -7 41
6 0 10 -4 10 -9z m-143 -53 c-3 -8 -6 -5 -6 6 -1 11 2 17 5 13 3 -3 4 -12 1
-19z m2240 -30 c-2 -13 -4 -5 -4 17 -1 22 1 32 4 23 2 -10 2 -28 0 -40z m153
-33 c0 -14 -4 -25 -10 -25 -5 0 -10 11 -10 25 0 14 5 25 10 25 6 0 10 -11 10
-25z m-1953 -7 c-3 -8 -6 -5 -6 6 -1 11 2 17 5 13 3 -3 4 -12 1 -19z m-948
-377 c7 -5 12 -13 10 -18 -2 -5 -12 -1 -21 9 -19 19 -13 24 11 9z m-999 -246
c0 -8 -7 -15 -15 -15 -8 0 -15 7 -15 15 0 8 7 15 15 15 8 0 15 -7 15 -15z
m120 -10 c0 -18 -5 -25 -20 -25 -15 0 -20 7 -20 25 0 18 5 25 20 25 15 0 20
-7 20 -25z m-55 5 c3 -5 -1 -10 -9 -10 -9 0 -16 5 -16 10 0 6 4 10 9 10 6 0
13 -4 16 -10z m602 -42 c-3 -8 -6 -5 -6 6 -1 11 2 17 5 13 3 -3 4 -12 1 -19z
m-710 -70 c-3 -8 -6 -5 -6 6 -1 11 2 17 5 13 3 -3 4 -12 1 -19z m756 -95 c-7
-3 -13 -12 -13 -20 0 -9 -2 -14 -5 -11 -4 3 -3 18 1 33 5 20 9 24 18 14 8 -8
8 -13 -1 -16z m-153 7 c0 -5 -4 -10 -10 -10 -5 0 -10 5 -10 10 0 6 5 10 10 10
6 0 10 -4 10 -10z"/>
<path d="M6280 7460 c0 -11 5 -20 10 -20 6 0 10 9 10 20 0 11 -4 20 -10 20 -5
0 -10 -9 -10 -20z"/>
<path d="M4481 6454 c0 -11 3 -14 6 -6 3 7 2 16 -1 19 -3 4 -6 -2 -5 -13z"/>
<path d="M3990 6145 c0 -8 7 -15 15 -15 8 0 15 7 15 15 0 8 -7 15 -15 15 -8 0
-15 -7 -15 -15z"/>
<path d="M3950 6071 c0 -12 5 -21 10 -21 6 0 10 6 10 14 0 8 -4 18 -10 21 -5
3 -10 -3 -10 -14z"/>
<path d="M2185 6000 c4 -6 11 -8 16 -5 14 9 11 15 -7 15 -8 0 -12 -5 -9 -10z"/>
<path d="M3390 5940 c0 -5 9 -10 21 -10 11 0 17 5 14 10 -3 6 -13 10 -21 10
-8 0 -14 -4 -14 -10z"/>
<path d="M3535 5920 c3 -5 8 -10 11 -10 2 0 4 5 4 10 0 6 -5 10 -11 10 -5 0
-7 -4 -4 -10z"/>
<path d="M3300 5900 c19 -13 30 -13 30 0 0 6 -10 10 -22 10 -19 0 -20 -2 -8
-10z"/>
<path d="M3590 5823 c0 -22 2 -25 10 -13 13 20 13 40 0 40 -5 0 -10 -12 -10
-27z"/>
<path d="M2815 5771 c-3 -6 -12 -8 -18 -5 -8 5 -8 3 1 -7 9 -10 15 -10 24 -1
6 6 9 14 6 17 -3 4 -9 1 -13 -4z"/>
<path d="M2351 5734 c0 -11 3 -14 6 -6 3 7 2 16 -1 19 -3 4 -6 -2 -5 -13z"/>
<path d="M2218 5703 c7 -3 16 -2 19 1 4 3 -2 6 -13 5 -11 0 -14 -3 -6 -6z"/>
<path d="M4480 5636 c0 -22 3 -27 11 -19 8 8 8 16 0 30 -9 16 -10 14 -11 -11z"/>
<path d="M2150 5530 c0 -11 5 -20 10 -20 6 0 10 9 10 20 0 11 -4 20 -10 20 -5
0 -10 -9 -10 -20z"/>
<path d="M3430 5480 c0 -5 5 -10 11 -10 5 0 7 5 4 10 -3 6 -8 10 -11 10 -2 0
-4 -4 -4 -10z"/>
<path d="M2280 5450 c0 -5 9 -10 20 -10 11 0 20 5 20 10 0 6 -9 10 -20 10 -11
0 -20 -4 -20 -10z"/>
<path d="M2280 5360 c0 -5 7 -10 15 -10 8 0 15 5 15 10 0 6 -7 10 -15 10 -8 0
-15 -4 -15 -10z"/>
<path d="M2672 5340 c0 -14 2 -19 5 -12 2 6 2 18 0 25 -3 6 -5 1 -5 -13z"/>
<path d="M2420 5180 c0 -5 5 -10 10 -10 6 0 10 5 10 10 0 6 -4 10 -10 10 -5 0
-10 -4 -10 -10z"/>
<path d="M2370 5059 c0 -25 33 -22 38 4 2 12 -3 17 -17 17 -15 0 -21 -6 -21
-21z"/>
<path d="M2290 4985 c0 -8 4 -15 9 -15 5 0 12 -10 14 -22 3 -14 5 -9 6 15 1
27 -3 37 -14 37 -8 0 -15 -7 -15 -15z"/>
<path d="M2670 4905 c0 -8 5 -15 10 -15 6 0 10 7 10 15 0 8 -4 15 -10 15 -5 0
-10 -7 -10 -15z"/>
<path d="M2540 4880 c0 -5 5 -10 10 -10 6 0 10 5 10 10 0 6 -4 10 -10 10 -5 0
-10 -4 -10 -10z"/>
<path d="M2480 4830 c0 -11 7 -20 15 -20 8 0 15 9 15 20 0 11 -7 20 -15 20 -8
0 -15 -9 -15 -20z"/>
<path d="M2678 4803 c6 -2 18 -2 25 0 6 3 1 5 -13 5 -14 0 -19 -2 -12 -5z"/>
<path d="M2447 4785 c-4 -9 -7 -20 -7 -23 0 -14 56 -31 90 -27 19 2 41 4 48 4
6 1 12 8 12 17 0 14 -8 16 -52 11 -46 -6 -55 -4 -69 14 -14 19 -17 20 -22 4z"/>
<path d="M2640 4780 c0 -5 7 -10 15 -10 8 0 15 5 15 10 0 6 -7 10 -15 10 -8 0
-15 -4 -15 -10z"/>
<path d="M2730 4755 c0 -8 5 -15 10 -15 6 0 10 7 10 15 0 8 -4 15 -10 15 -5 0
-10 -7 -10 -15z"/>
<path d="M2600 4715 c0 -8 7 -15 15 -15 8 0 15 7 15 15 0 8 -7 15 -15 15 -8 0
-15 -7 -15 -15z"/>
<path d="M2770 4715 c0 -8 5 -15 10 -15 6 0 10 7 10 15 0 8 -4 15 -10 15 -5 0
-10 -7 -10 -15z"/>
<path d="M2670 4700 c0 -5 9 -10 20 -10 11 0 20 5 20 10 0 6 -9 10 -20 10 -11
0 -20 -4 -20 -10z"/>
<path d="M2985 4650 c-3 -5 3 -10 14 -10 12 0 21 5 21 10 0 6 -6 10 -14 10 -8
0 -18 -4 -21 -10z"/>
<path d="M2810 4600 c0 -11 5 -20 10 -20 6 0 10 9 10 20 0 11 -4 20 -10 20 -5
0 -10 -9 -10 -20z"/>
<path d="M2895 4544 c-3 -20 -4 -39 -1 -42 3 -3 6 4 6 16 0 13 6 22 15 22 8 0
15 9 15 20 0 35 -27 22 -35 -16z"/>
<path d="M2590 4550 c0 -5 7 -10 16 -10 8 0 12 5 9 10 -3 6 -10 10 -16 10 -5
0 -9 -4 -9 -10z"/>
<path d="M2750 4550 c0 -5 7 -10 15 -10 8 0 15 5 15 10 0 6 -7 10 -15 10 -8 0
-15 -4 -15 -10z"/>
<path d="M2790 4505 c0 -24 5 -35 15 -35 10 0 15 11 15 35 0 24 -5 35 -15 35
-10 0 -15 -11 -15 -35z"/>
<path d="M2900 4440 c0 -17 -7 -20 -45 -20 -47 0 -56 -11 -29 -37 13 -13 20
-14 35 -5 10 7 39 12 65 12 38 0 45 3 42 18 -3 11 -12 16 -26 15 -16 -2 -22 3
-22 17 0 11 -4 20 -10 20 -5 0 -10 -9 -10 -20z"/>
<path d="M3108 4393 c7 -3 16 -2 19 1 4 3 -2 6 -13 5 -11 0 -14 -3 -6 -6z"/>
<path d="M2697 4383 c-13 -12 -7 -33 8 -33 8 0 15 9 15 20 0 20 -11 26 -23 13z"/>
<path d="M5317 6574 c-4 -4 -30 -9 -59 -11 -47 -4 -67 -14 -68 -35 0 -8 39 4
78 24 18 10 25 9 31 -1 10 -16 54 -5 48 12 -4 13 -21 20 -30 11z"/>
<path d="M1940 9560 c0 -5 5 -10 11 -10 5 0 7 5 4 10 -3 6 -8 10 -11 10 -2 0
-4 -4 -4 -10z"/>
<path d="M5628 6003 c7 -3 16 -2 19 1 4 3 -2 6 -13 5 -11 0 -14 -3 -6 -6z"/>
<path d="M6363 4787 c-18 -12 -32 -28 -33 -35 0 -7 -7 -15 -15 -18 -17 -7 -21
-33 -5 -35 66 -6 74 -3 83 32 5 19 13 38 18 44 13 13 11 35 -3 34 -7 0 -27
-11 -45 -22z"/>
<path d="M6288 4653 c-25 -6 -23 -33 2 -33 17 0 20 -7 20 -40 l0 -40 40 0 c37
0 40 2 40 29 0 16 -3 43 -6 60 -6 28 -10 31 -43 30 -20 -1 -44 -3 -53 -6z"/>
<path d="M6230 4530 c0 -5 5 -10 10 -10 6 0 10 5 10 10 0 6 -4 10 -10 10 -5 0
-10 -4 -10 -10z"/>
<path d="M6270 4485 c0 -8 9 -15 20 -15 11 0 20 7 20 15 0 8 -9 15 -20 15 -11
0 -20 -7 -20 -15z"/>
<path d="M6390 4487 c0 -9 -7 -20 -17 -25 -16 -10 -12 -42 5 -42 10 0 25 71
17 79 -3 2 -5 -3 -5 -12z"/>
<path d="M6310 4439 c0 -14 5 -19 17 -17 26 5 29 38 4 38 -15 0 -21 -6 -21
-21z"/>
<path d="M6355 4310 c-4 -22 -11 -40 -16 -40 -5 0 -9 -9 -9 -20 0 -36 18 -21
25 20 4 22 11 40 16 40 5 0 9 9 9 20 0 36 -18 21 -25 -20z"/>
<path d="M6230 4290 c0 -16 -7 -20 -30 -20 -29 0 -40 -13 -21 -25 5 -3 8 -20
5 -38 -7 -50 5 -87 27 -87 12 0 19 -7 19 -18 0 -11 9 -27 20 -37 18 -16 20
-16 20 -2 0 10 8 17 20 17 13 0 20 7 20 20 0 15 7 20 25 20 14 0 25 5 25 11 0
7 7 17 16 24 12 8 15 20 10 38 -7 28 -36 38 -36 13 0 -19 -80 -16 -104 3 -14
12 -16 24 -11 58 3 24 4 43 1 43 -3 0 -6 -9 -6 -20z"/>
<path d="M6097 4027 c-23 -18 -28 -29 -25 -57 2 -30 7 -35 30 -38 21 -3 30 3
42 26 9 17 27 33 41 36 37 9 30 42 -8 38 -15 -2 -27 1 -27 7 0 18 -23 13 -53
-12z"/>
<path d="M6310 3939 c0 -11 5 -17 10 -14 6 3 10 13 10 21 0 8 -4 14 -10 14 -5
0 -10 -9 -10 -21z"/>
<path d="M5956 3784 c-4 -10 -1 -14 6 -12 15 5 23 28 10 28 -5 0 -13 -7 -16
-16z"/>
<path d="M5818 3623 c7 -3 16 -2 19 1 4 3 -2 6 -13 5 -11 0 -14 -3 -6 -6z"/>
<path d="M5477 3360 c3 -11 9 -20 14 -20 5 0 9 9 9 20 0 11 -6 20 -14 20 -9 0
-12 -7 -9 -20z"/>
<path d="M4022 3153 c-6 -2 -10 -8 -7 -13 6 -10 45 -1 45 11 0 10 -17 11 -38
2z"/>
<path d="M5048 3053 c7 -3 16 -2 19 1 4 3 -2 6 -13 5 -11 0 -14 -3 -6 -6z"/>
<path d="M3870 2900 c0 -14 -7 -20 -22 -20 -16 0 -19 -3 -11 -11 8 -8 17 -7
34 3 42 23 52 48 19 48 -13 0 -20 -7 -20 -20z"/>
<path d="M4780 2820 c0 -13 7 -20 20 -20 13 0 20 7 20 20 0 13 -7 20 -20 20
-13 0 -20 -7 -20 -20z"/>
<path d="M4526 2715 c-3 -8 -12 -15 -21 -15 -8 0 -15 -4 -15 -10 0 -5 6 -10
14 -10 28 0 46 12 46 31 0 23 -15 25 -24 4z"/>
<path d="M6010 2705 c0 -8 4 -15 8 -15 5 0 9 7 9 15 0 8 -4 15 -9 15 -4 0 -8
-7 -8 -15z"/>
<path d="M3463 1554 c-3 -8 -1 -20 6 -27 8 -8 11 -4 11 16 0 30 -7 35 -17 11z"/>
<path d="M5290 1498 c0 -13 5 -30 10 -38 7 -11 10 -5 10 23 0 20 -4 37 -10 37
-5 0 -10 -10 -10 -22z"/>
<path d="M3476 1495 c-4 -11 1 -15 19 -15 16 0 25 -6 25 -15 0 -8 9 -15 20
-15 11 0 20 -4 20 -10 0 -5 9 -10 20 -10 24 0 24 3 4 46 -15 31 -20 34 -59 34
-29 0 -45 -5 -49 -15z"/>
<path d="M2872 1479 c2 -6 8 -10 13 -10 5 0 11 4 13 10 2 6 -4 11 -13 11 -9 0
-15 -5 -13 -11z"/>
<path d="M2960 1471 c0 -12 5 -21 10 -21 6 0 10 6 10 14 0 8 -4 18 -10 21 -5
3 -10 -3 -10 -14z"/>
<path d="M3100 1471 c0 -12 5 -21 10 -21 6 0 10 6 10 14 0 8 -4 18 -10 21 -5
3 -10 -3 -10 -14z"/>
<path d="M4490 1461 c0 -12 6 -21 15 -21 8 0 15 4 15 9 0 5 -7 14 -15 21 -13
10 -15 9 -15 -9z"/>
<path d="M2903 1430 c-3 -11 -12 -20 -19 -20 -16 0 -19 -16 -4 -25 6 -3 10 -1
10 6 0 7 7 4 15 -7 13 -18 14 -16 15 24 0 44 -8 56 -17 22z"/>
<path d="M2990 1445 c0 -18 19 -40 26 -32 4 4 0 15 -9 24 -9 10 -17 13 -17 8z"/>
<path d="M2958 1383 c7 -3 16 -2 19 1 4 3 -2 6 -13 5 -11 0 -14 -3 -6 -6z"/>
<path d="M2750 1315 c0 -8 7 -15 15 -15 8 0 15 7 15 15 0 8 -7 15 -15 15 -8 0
-15 -7 -15 -15z"/>
<path d="M2807 1310 c-3 -13 0 -20 9 -20 8 0 14 9 14 20 0 11 -4 20 -9 20 -5
0 -11 -9 -14 -20z"/>
<path d="M4238 1302 c-11 -2 -18 -13 -18 -28 0 -20 5 -24 29 -24 39 0 61 9 61
26 0 8 -10 14 -24 14 -13 0 -26 4 -28 8 -1 4 -11 6 -20 4z"/>
<path d="M4443 1297 c-12 -6 -24 -19 -26 -29 -3 -10 -12 -18 -21 -18 -9 0 -16
-7 -16 -15 0 -8 7 -15 15 -15 8 0 15 5 15 11 0 7 14 8 39 4 l39 -6 -1 37 c-2
41 -11 47 -44 31z"/>
<path d="M4526 1285 c4 -8 10 -12 15 -9 14 8 10 24 -6 24 -9 0 -12 -6 -9 -15z"/>
<path d="M2790 1195 c0 -8 5 -15 10 -15 6 0 10 7 10 15 0 8 -4 15 -10 15 -5 0
-10 -7 -10 -15z"/>
<path d="M3580 1120 c0 -11 5 -20 10 -20 6 0 10 9 10 20 0 11 -4 20 -10 20 -5
0 -10 -9 -10 -20z"/>
<path d="M2941 896 c2 -48 5 -55 23 -58 16 -2 22 -11 24 -40 2 -25 8 -38 18
-38 10 0 14 14 14 56 l0 57 -30 -6 c-29 -6 -30 -6 -30 33 0 21 -5 42 -10 45
-7 4 -10 -13 -9 -49z"/>
<path d="M3053 835 c-7 -8 -13 -30 -13 -49 0 -35 1 -36 33 -32 17 3 36 5 40 5
5 1 5 16 2 34 -12 55 -37 71 -62 42z"/>
<path d="M5405 820 c3 -5 8 -10 11 -10 2 0 4 5 4 10 0 6 -5 10 -11 10 -5 0 -7
-4 -4 -10z"/>
<path d="M2940 720 c0 -19 3 -21 12 -12 9 9 9 15 0 24 -9 9 -12 7 -12 -12z"/>
<path d="M2010 620 c0 -11 5 -20 10 -20 6 0 10 9 10 20 0 11 -4 20 -10 20 -5
0 -10 -9 -10 -20z"/>
</g>
</svg>
